<?xml version="1.0" encoding="UTF-8" standalone="no"?>
<svg
   xmlns:dc="http://purl.org/dc/elements/1.1/"
   xmlns:cc="http://creativecommons.org/ns#"
   xmlns:rdf="http://www.w3.org/1999/02/22-rdf-syntax-ns#"
   xmlns:svg="http://www.w3.org/2000/svg"
   xmlns="http://www.w3.org/2000/svg"
   version="1.1"
   id="Layer_1"
   x="0px"
   y="0px"
   width="360.69727"
   height="313.05859"
   viewBox="0 0 360.69727 313.05859"
   enable-background="new 0 0 330.5 284.5"
   xml:space="preserve"><metadata
     id="metadata3687"><rdf:RDF><cc:Work
         rdf:about=""><dc:format>image/svg+xml</dc:format><dc:type
           rdf:resource="http://purl.org/dc/dcmitype/StillImage" /><dc:title></dc:title></cc:Work></rdf:RDF></metadata><defs
     id="defs3685"><circle
       style="fill:none;fill-opacity:0.42713569;stroke-width:0.91021603"
       id="path4595-7"
       cx="-115.8445"
       cy="161.33818"
       transform="matrix(-0.98768834,0.15643447,0.15643447,0.98768834,0,0)"
       r="170.61855" /></defs><path
     style="fill:#000000;fill-opacity:1"
     d="m 177.1875,0 c -18.869,0 -36.6527,3.5471246 -53.3457,10.703125 -16.692,7.125 -31.222175,16.924639 -43.576175,29.431641 -12.367,12.477 -22.185169,27.007796 -29.451172,43.591796 -7.264998,16.551998 -10.888671,34.257538 -10.888671,53.144538 0,18.856 3.623673,36.55957 10.888671,53.14257 7.266001,16.554 17.084172,31.0845 29.451172,43.5625 12.354,12.508 26.883215,22.30985 43.574215,29.46485 16.693,7.127 34.47375,10.70312 53.34375,10.70312 14.532,0 28.54774,-2.3 42.05274,-6.875 13.502,-4.604 25.86989,-10.98372 37.08789,-19.13672 11.217,-8.153 21.09767,-17.82954 29.63867,-29.06054 8.526,-11.2 15.08969,-23.55489 19.67969,-37.08789 L 356.10937,63.068359 c 1.275,-3.58 2.36496,-6.938578 3.25196,-10.142578 0.886,-3.173 1.33597,-6.533328 1.33593,-10.111328 0,-6.132 -1.13554,-11.793438 -3.43554,-17.023437 -2.287,-5.226 -5.35469,-9.735454 -9.17969,-13.564454 -3.827,-3.8249999 -8.35245,-6.8131869 -13.56445,-8.992187 C 329.28958,1.060375 323.73677,0 317.88476,0 Z m 131.32031,13.859375 c 0.66812,0.04367 1.35904,0.272743 1.98242,0.720703 0.28024,0.1136 0.44252,0.168985 0.65235,0.326172 0.13722,0.710053 0.84219,1.973241 0.13867,2.802734 -0.28787,0.06171 -0.64206,0.223162 -0.86133,0.378906 -0.004,0.286774 0.0333,0.55139 0.0859,0.722657 0.0472,0.154026 0.13821,0.214288 -0.0937,0.308593 -0.0291,0.01173 -0.0167,0.108225 0,0.144532 0.58191,0.114413 1.20264,-0.106965 1.5918,-0.263672 h 0.46484 v -0.585938 h 0.11914 0.10156 v -0.458984 h 0.22266 v 0.792969 h 0.58008 V 19 h 8.59375 v 0.445312 h 0.38086 V 17.8125 h 0.32031 v 1.328125 h 0.73047 v 0.757812 h 2.27539 v -0.224609 h 0.3789 v 0.09961 h 1.07618 v 0.63086 h -1.07618 v 0.09961 h -0.3789 v -0.226562 h -2.27539 v 0.226562 h -1.00196 v -0.152344 h -0.42968 v 0.458985 h -3.79688 c -0.0621,0.03133 -0.13417,0.06121 -0.23437,0.08008 -0.44578,0.630747 -0.17697,0.557358 -0.96289,1.083984 0.002,1.05672 0.0333,1.169162 0.28125,2.105469 0.006,0.0224 0.003,0.04476 -0.01,0.06445 -0.0123,0.01972 -0.0302,0.03243 -0.0527,0.03711 -0.19023,0.04084 -0.46283,0.111009 -0.6211,0.140626 0.005,0.03332 0.081,0.632565 -0.004,1.078124 -0.13287,0.69948 -1.79782,2.230288 -2.19532,2.308594 -0.54996,0.10832 -1.16606,-0.378914 -2.12695,-0.800781 -0.265,-0.116253 -1.15377,-0.700215 -1.61914,-0.855469 -0.38589,-0.128626 -0.77214,0.812333 -0.29297,1.064453 0.22327,0.117254 0.57889,0.27502 0.69141,0.566407 0.33325,0.864 -0.0515,4.195221 -0.73828,4.865234 -0.32599,-0.0025 -0.60162,-0.30091 -0.84375,-0.222656 -0.43271,0.236653 -0.15864,1.557109 0,1.787109 2.65978,2.73632 2.34529,4.764051 3.47461,6.277344 0.51512,0 0.1758,0.544613 0.5664,1.185547 0.10383,0.329266 -0.0297,0.889589 -0.0859,1.101562 v 0.824219 c -0.0283,0.08593 -0.0569,0.171906 -0.0859,0.257813 v 0.722656 c -0.0788,0.3518 -0.16582,0.823636 -0.24024,1.152344 -0.15753,0.693145 0.45222,1.231145 0.0859,1.890624 0,0.405427 0.002,0.325631 -0.24023,0.654297 0,0.629614 -0.1481,1.955281 0,2.423829 0.10346,0.325986 1.28544,1.70755 1.58203,1.839843 0.71476,0.318347 1.76738,0.249227 1.42578,1.375 -2.0924,0.642214 -3.42816,-0.360633 -4.54297,-0.376953 l -0.0527,0.191406 c -0.71404,0.0015 -1.28409,-0.175095 -1.43945,-0.226562 -10e-4,-0.192853 0.23178,-1.671697 0.31055,-1.908203 0.0802,-0.126214 0.16001,-0.252973 0.24023,-0.378907 0.0868,-0.251826 -0.0886,-2.098423 -0.10351,-2.595703 -0.44578,-0.3274 -0.53321,-1.326626 -0.53321,-1.875 -0.12852,-0.424386 -0.12817,-0.927222 -0.15429,-1.478515 -0.0123,-0.25852 -0.16602,-0.638464 -0.0684,-0.962891 0.0664,-0.22136 0.31487,-0.317367 0.37695,-0.498047 v -0.61914 c 0.11761,-0.651267 0.0816,-0.951984 -0.30859,-1.341797 -0.9787,0.01267 -1.11278,0.06022 -1.65039,-0.773438 -0.16699,-0.259066 -1.53584,-2.418842 -1.66797,-2.476562 -1.13878,-0.49704 -0.91209,-0.302707 -1.41016,-1.185547 -0.0203,0 -0.32389,0.10122 -0.5918,0.501953 -0.4073,0.608773 -1.12815,2.587717 -1.33398,3.28125 -0.11471,0.386973 -1.8e-4,0.814592 -0.17187,1.134766 -0.12488,0.231853 -0.53129,0.304917 -0.61915,0.46289 -0.39895,0.718947 -0.0996,0.663549 -0.85937,1.169922 -0.13685,0.17624 -0.14041,0.441724 -0.24023,0.654297 -0.0574,0.08027 -0.11647,0.159981 -0.17383,0.240234 -0.12778,0.274374 0.13607,0.7743 0.0859,0.945313 -0.13141,0.450493 -0.30405,0.905179 -0.48046,1.324219 -0.34814,0.82628 -0.30327,1.923574 -0.6543,2.43164 -0.17643,0.255254 -0.60284,0.0072 -0.92774,0.216797 -0.0189,0.17756 -0.53543,1.357694 -0.63671,1.685547 v 1.873047 c 0.0973,0.315933 0.36465,0.617845 0.28515,1.017578 -0.0842,0.42584 -1.56543,0.418588 -2.36914,0.302734 -0.53798,-0.07756 -0.70047,-0.475007 -0.6914,-0.933593 0.0105,-0.54112 1.1055,-4.055796 1.03906,-4.289063 -0.83094,-0.93476 0.22247,-1.898011 0.5332,-2.769531 0.15137,-0.42484 0.0578,-1.018063 0.22266,-1.410156 0.29222,-0.533 0.58474,-1.064737 0.87695,-1.597657 0.53327,-0.503666 0.29734,-0.529268 0.58594,-0.980468 0.25048,-0.3914 0.55497,-0.656006 0.3789,-1.25586 -0.35429,-1.20628 0.41206,-2.915721 0.46289,-4.177734 -0.13614,-0.143347 -0.5982,-0.09938 -0.65624,-0.484375 -0.11762,-0.78332 0.29718,-2.168768 0.55273,-2.300781 0.11363,-0.05855 0.24283,-0.0081 0.34375,-0.07031 0,-0.587907 -0.58229,-3.857917 -0.13867,-4.023437 0.2737,-0.10208 0.90256,-0.156338 1.02343,-0.210938 -0.007,-0.1394 -0.10298,-0.436978 -0.21874,-0.453125 -0.19496,-0.02708 -0.59571,-0.102301 -0.91407,-0.175781 -0.97722,-0.225187 -0.0725,-4.078177 -0.0605,-4.09375 0.269,-0.355107 1.51659,0.123085 1.66796,-0.482422 0.41711,-0.532013 -0.32217,-2.580468 1.10157,-5.101563 0.48062,-0.851373 1.40118,-1.710156 2.47461,-1.345703 0.35973,0.121974 0.14106,0.639098 0.77343,0.08594 0.0156,-0.322707 -0.13297,-0.594502 -0.22265,-0.861328 -0.78846,-2.35205 1.01712,-3.894686 3.02148,-3.763672 z m 6.3711,7.462891 c -0.26026,0.02304 -0.50236,0.12095 -0.38086,0.359374 0.1423,0.281187 -0.0611,0.350284 -0.38086,0.34375 v 0.205079 h 1.16797 c 0.15392,-0.2266 0.31461,-0.695196 0.0703,-0.857422 -0.0345,-0.0229 -0.11893,-0.04242 -0.22266,-0.05078 -0.0778,-0.0063 -0.16715,-0.0077 -0.2539,0 z m -1.19141,1.191406 c 0.041,0.36188 0.41815,0.883129 0.5332,1.042968 0.28462,-0.0012 0.72596,-0.805435 0.88282,-1.042968 z m -136.50195,2.314453 c 15.293,0 29.68512,2.95564 43.20312,8.806641 13.504,5.850999 25.29733,13.877031 35.36133,24.082031 10.065,10.206 17.96898,22.124 23.70898,35.75 5.741,13.628003 8.60352,28.096303 8.60352,43.404303 0,9.25204 -1.0587,18.18268 -3.16211,26.78906 H 251.2793 l 15.83398,-74.607426 h -17.35352 l -19.12695,89.933596 h 49.26563 c -0.14726,0.3571 -0.2882,0.71642 -0.43946,1.07227 -5.74,13.503 -13.64398,25.295 -23.70898,35.375 -10.064,10.083 -21.85733,17.95293 -35.36133,23.71093 -13.517,5.724 -27.90817,8.58594 -43.20117,8.58594 -15.292,0 -29.7603,-2.86194 -43.4043,-8.58594 -13.628,-5.758 -25.54438,-13.62793 -35.734371,-23.71093 -10.204001,-10.08 -18.233657,-21.872 -24.097657,-35.375 -0.154584,-0.35593 -0.29872,-0.71509 -0.449219,-1.07227 h 4.103516 l 12.160156,-22.41992 h 29.007815 l 2.78515,22.41992 h 17.98633 L 126.5,89.052734 H 110.91992 L 59.619141,178.98633 h -2 l 10.1875,-17.86133 c -1.751275,-7.82303 -2.644531,-15.90574 -2.644531,-24.2539 0,-15.306 2.924062,-29.7763 8.789062,-43.404303 5.864,-13.626 13.893656,-25.543 24.097657,-35.75 10.190001,-10.205 22.105421,-18.232031 35.732421,-24.082031 13.644,-5.851 28.1123,-8.806641 43.4043,-8.806641 z m 84.60742,8.162109 h 9.5 c 1.71862,0 3.11914,1.402494 3.11914,3.121094 H 262.625 v 8.181641 h 11.78711 c 0,1.7186 -1.40052,3.121093 -3.11914,3.121093 h -9.5 c -1.71864,0 -3.1211,-1.402493 -3.1211,-3.121093 v -8.181641 c 0,-1.7186 1.40246,-3.121094 3.1211,-3.121094 z m 18.51367,0 h 9.66406 c 1.71866,0 3.11914,1.402494 3.11914,3.121094 h -12.48632 v 2.53125 h 9.68945 c 1.71865,0 3.12109,1.400634 3.12109,3.119141 v 2.53125 c 0,1.7186 -1.40244,3.121093 -3.12109,3.121093 h -9.98633 c -1.71864,0 -3.12109,-1.402493 -3.12109,-3.121093 h 12.81054 v -2.53125 h -9.68945 c -1.71864,0 -3.12109,-1.400501 -3.12109,-3.119141 v -2.53125 c 0,-1.7186 1.40245,-3.121094 3.12109,-3.121094 z m 41.0625,0 h 10.04102 c 1.7185,0 3.11914,1.402494 3.11914,3.121094 h -13.08008 v 8.181641 h 10.10351 v -2.988282 h -5.22851 c -1.32754,0 -2.41016,-1.082609 -2.41016,-2.410156 h 10.61524 v 5.398438 c 0,1.7186 -1.40064,3.121093 -3.11914,3.121093 h -10.04102 c -1.71815,0 -3.12109,-1.402493 -3.12109,-3.121093 v -8.181641 c 0,-1.7186 1.40294,-3.121094 3.12109,-3.121094 z m 19.32031,0 h 9.5 c 1.71851,0 3.1211,1.402494 3.1211,3.121094 v 8.181641 c 0,1.7186 -1.40259,3.121093 -3.1211,3.121093 h -9.5 c -1.7185,0 -3.11914,-1.402493 -3.11914,-3.121093 v -8.181641 c 0,-1.7186 1.40064,-3.121094 3.11914,-3.121094 z m 0.0508,3.121094 v 8.181641 h 9.40039 v -8.181641 z m -120.4414,52.941406 -43.69922,42.814456 9.12109,-42.687503 h -17.35353 l -19.12696,89.806643 h 17.35352 l 5.69922,-26.85352 13.04687,-12.0332 17.60742,38.88672 h 19.75977 l -24.06641,-50.0332 41.16602,-39.900396 z m -105.83401,19.886716 3.92774,35.33985 H 95.212891 Z M 0,145.95508 l 0.324219,4.72266 6.035156,1.75586 0.56836,8.24804 -5.734375,2.59961 0.326172,4.72266 22.990234,-10.60547 -0.279297,-4.05859 z m 351.88086,0.90039 -24.27149,7.21094 -0.30273,4.05664 22.92773,10.77148 0.35352,-4.7207 -5.72266,-2.59961 0.61524,-8.24414 6.04883,-1.75391 z m -342.242188,6.12109 9.511719,2.75196 -9.054688,3.89843 z m 332.556638,0.94336 -0.49805,6.64844 -9.01953,-4.08398 z m -47.97656,9.74024 h 2 l -3.16602,15.32617 h -2 z m -268.808593,3.66601 -23.066407,5.14454 1,4.48828 6.896485,-1.53711 3.751953,2.27148 -8.384766,9.41797 1.125,5.04102 10.753907,-12.26758 12.220703,6.56445 -1.101563,-4.94531 -13.158203,-7.24219 10.962891,-2.44531 z m 305.683593,2.88477 c -1.72272,0.40202 -3.22676,1.26928 -4.51367,2.60156 -1.28163,1.3107 -2.18661,3.0446 -2.71485,5.20313 -0.39089,1.59731 -0.43966,3.15295 -0.14648,4.66601 0.2716,1.50778 0.81169,2.89853 1.62109,4.17188 0.79311,1.24647 1.81966,2.33165 3.08008,3.25781 1.24412,0.89929 2.65475,1.54212 4.23047,1.92773 1.66207,0.40675 3.28363,0.50613 4.86719,0.29883 1.56725,-0.23416 2.99953,-0.70742 4.29492,-1.41992 1.30067,-0.73408 2.41323,-1.68472 3.33984,-2.85352 0.9319,-1.19037 1.58336,-2.54176 1.95313,-4.05273 0.59691,-2.43913 0.20215,-4.80023 -1.1836,-7.08398 l 2.58985,0.63476 0.9043,-3.6914 -11.81836,-2.89258 -2.03711,8.32031 3.27148,0.80078 1.13281,-4.6289 1.61914,0.39453 c 1.65534,2.30396 2.21011,4.56773 1.66602,6.79101 -0.23771,0.97134 -0.6535,1.83138 -1.24805,2.57813 -0.61085,0.71987 -1.33519,1.29707 -2.17383,1.73242 -0.83863,0.43535 -1.76465,0.71186 -2.77734,0.83008 -1.03427,0.11294 -2.09066,0.0375 -3.16992,-0.22657 -1.03609,-0.25355 -1.98173,-0.64449 -2.83594,-1.17382 -0.84893,-0.55093 -1.55979,-1.19416 -2.13476,-1.92969 -0.56969,-0.75712 -0.96307,-1.58536 -1.17774,-2.48438 -0.20939,-0.9206 -0.19474,-1.86655 0.043,-2.83789 0.3011,-1.23036 0.88034,-2.28955 1.73828,-3.17773 0.86323,-0.90977 1.93797,-1.51552 3.22461,-1.81836 z m -11.50391,22.63867 -1.64258,4.29688 22.10352,8.45507 1.64453,-4.29687 z m -312.226558,1.00195 1.679687,4.42579 6.285156,-0.0664 2.933594,7.72851 -4.736328,4.1504 1.679688,4.42382 18.933593,-16.81054 -1.443359,-3.80274 z m 21.162109,3.80665 -7.537109,6.35351 -2.365235,-6.23242 z m 286.894529,5.38085 -1.97656,4.1543 21.36523,10.17578 1.97852,-4.15234 z m -279.197263,0.25977 -3.542969,1.92969 3.621094,6.64453 -17.240235,9.39258 2.185547,4.01172 17.240234,-9.39454 3.619141,6.64454 3.542969,-1.92969 z m 269.484373,17.53125 -2.41601,3.91406 20.14257,12.42774 8.75196,-14.18555 -3.4336,-2.11719 -6.33593,10.26953 z m -259.005858,1.12695 -19.089844,13.99024 9.714844,13.2539 3.251953,-2.38281 -6.99414,-9.54492 4.974609,-3.64649 5.890625,8.03907 3.011719,-2.20703 -5.890625,-8.03907 4.597656,-3.36914 6.816406,9.30274 3.253907,-2.38281 z m 253.083988,7.37696 -2.81836,3.63672 18.70703,14.49804 2.81836,-3.63672 z m -241.697269,7.73437 -17.130859,16.32813 11.33789,11.89453 2.919922,-2.78125 -8.164062,-8.56641 4.46289,-4.25391 6.876953,7.2129 2.703125,-2.57618 -6.876953,-7.21289 4.125,-3.93359 7.957032,8.34766 2.919921,-2.78125 z m 236.291019,3.10547 c -1.00643,-0.0491 -1.99543,0.10586 -2.96485,0.46484 -0.96985,0.32757 -1.83439,0.8817 -2.59375,1.66211 l -7.29883,7.50196 16.96094,16.5039 3.20899,-3.29687 -5.68555,-5.53125 3.16016,-3.25 9.05664,2.06836 3.60351,-3.70313 -10.14453,-2.33594 c 0.51616,-1.32711 0.59157,-2.69611 0.22656,-4.10546 -0.36543,-1.44078 -1.09635,-2.69437 -2.19531,-3.76368 -0.68486,-0.66637 -1.4934,-1.19019 -2.42578,-1.57031 -0.94831,-0.39562 -1.9177,-0.61093 -2.9082,-0.64453 z m -0.55469,4.3457 c 0.45586,0.009 0.91265,0.11253 1.37109,0.31055 0.45844,0.19802 0.88699,0.49148 1.28516,0.87891 0.38224,0.37193 0.68612,0.77596 0.91211,1.21289 0.22598,0.43693 0.37449,0.87537 0.44336,1.31445 0.0529,0.42358 0.0185,0.83977 -0.10157,1.25 -0.10461,0.3943 -0.30321,0.74231 -0.59765,1.04492 l -4.02149,4.13477 -5.49609,-5.34766 3.88281,-3.99023 c 0.27895,-0.28669 0.62251,-0.49567 1.0293,-0.62696 0.40636,-0.1627 0.83668,-0.22254 1.29297,-0.18164 z m -22.86524,5.44727 -2.9414,2.24414 2.40625,3.15234 2.9414,-2.24218 z m -200.214839,0.48437 -14.466797,18.73243 3.640625,2.81054 9.576172,-12.39843 -2.302734,12.96093 1.978515,1.5293 11.958985,-5.50586 -9.576172,12.40039 3.640625,2.81055 14.466797,-18.73047 -3.878907,-2.9961 -13.824218,6.33985 2.691406,-14.9375 z m 195.126949,3.39649 -2.94336,2.24414 2.40625,3.1543 2.94141,-2.24415 z m 6.72461,3.21289 -3.23242,2.46484 7.16797,24.29688 3.76367,-2.86914 -1.85547,-6.00586 6.57422,-5.01367 5.32617,3.35742 3.76368,-2.86914 z m 1.55664,5.39453 8.23828,5.41406 -5.30078,4.04297 z m -14.02148,3.83398 -4.04297,2.19141 7.38867,13.62695 -18.24804,-7.77734 -3.13477,1.70117 11.28125,20.80469 4.04297,-2.19336 -7.22852,-13.33203 17.92578,7.5332 3.28125,-1.7793 z m -166.810547,0.5586 -12.125,20.32617 3.951172,2.35547 12.123047,-20.32422 z m 7.507807,4.71094 -9.839838,21.52539 4.183593,1.91211 6.306645,-13.79297 4.75781,18.85156 3.39453,1.55273 9.82812,-21.49414 -4.18359,-1.91211 -6.44531,14.09571 -4.75781,-19.25391 z m 139.06641,5.50195 -4.67383,1.67969 -1.72851,12.73437 -9.34571,-8.75586 -4.70507,1.69141 13.24609,11.5332 2.81836,7.8418 4.29883,-1.54297 -2.79688,-7.78125 z m -116.95508,4.12695 -6.79492,22.66992 15.74219,4.71875 1.1582,-3.86328 -11.33594,-3.39844 1.76954,-5.90624 9.54882,2.86132 1.07032,-3.57617 -9.54688,-2.86133 1.63672,-5.46093 11.04687,3.31054 1.15821,-3.86328 z m 96.05664,3.34375 -4.96093,1.02344 -7.45508,13.04102 -2.26758,-11.00196 -4.50586,0.92774 4.77148,23.14648 4.50586,-0.92773 -1.42578,-6.92188 2.33008,-3.71289 9.28125,8.53516 5.06055,-1.04297 -12.09375,-10.95117 z m -78.05664,1.97656 -3.65625,23.38282 4.54492,0.71093 2.3418,-14.98437 9.67774,16.86328 3.68945,0.57813 3.65039,-23.35157 -4.54492,-0.70898 -2.39453,15.3125 -9.78516,-17.25195 z"
     id="path3680" /></svg>